<svg xmlns="http://www.w3.org/2000/svg" xmlns:xlink="http://www.w3.org/1999/xlink" fill="none" version="1.1" width="320" height="320" viewBox="0 0 320 320"><g style="mix-blend-mode:passthrough"><g style="opacity:0.47999998927116394;"><path d="M273.16079931640627,273.13990234375C241.87679931640625,304.50490234375,198.96389931640624,321.44290234375,154.69989931640626,319.89690234375C141.13984131640626,319.44790234375,137.74594931640624,303.27790234375,144.17728931640625,293.54190234375C171.94829931640623,251.57520234375,261.52179931640626,249.99390234375,301.05579931640625,200.52360234374999C308.92179931640624,190.54620234375,314.51279931640624,178.96900234375,317.43579931640625,166.60287234375C318.30379931640624,163.17669234375,319.3887993164062,159.36294234375,319.96179931640626,156.64990234375C320.91179931640625,200.22500234375,304.0017993164063,242.29220234375,273.16079931640627,273.07790234375L273.16079931640627,273.13990234375Z" fill-rule="evenodd" fill="#03B2DE" fill-opacity="1"/></g><g style="opacity:0.47999998927116394;"><path d="M273.0674833984375,273.23296435546877C304.4194833984375,241.93696435546875,321.3504833984375,199.00796435546874,319.8074833984375,154.72756435546876C319.35748339843747,141.14686505546874,303.1784833984375,137.76719435546875,293.4614833984375,144.20097435546876C260.7164833984375,165.88976435546874,252.6421833984375,225.26656435546874,227.0717833984375,269.07796435546874C212.4423833984375,294.20896435546877,186.9030833984375,317.4319643554687,156.7454833984375,319.95896435546877C200.2736833984375,320.94296435546875,242.3070833984375,304.05796435546876,273.0674833984375,273.23296435546877Z" fill-rule="evenodd" fill="#8E03FF" fill-opacity="1"/></g><g style="opacity:0.47999998927116394;"><path d="M46.8704,46.9502134765625C78.1571,15.5898134765625,121.068,-1.3474065234375,165.331,0.1929106765625C178.922,0.6424994765625,182.285,16.8277134765625,175.854,26.5481134765625C148.098,68.5149134765625,58.5088,70.0962134765625,18.9754,119.5663134765625C11.1092,129.5443134765625,5.51846,141.1213134765625,2.59489,153.4873134765625C1.72705,156.8513134765625,0.657741,160.6653134765625,0.0378529,163.3783134765625C-0.910598,119.8033134765625,15.9992,77.7369134765625,46.8394,46.9502134765625L46.8704,46.9502134765625Z" fill-rule="evenodd" fill="#00DEB9" fill-opacity="1"/></g><g style="opacity:0.47999998927116394;"><path d="M46.96335830078125,46.8571C15.61495830078125,78.1557,-1.31591169921875,121.083,0.22381590078125,165.363C0.67323430078125,178.959,16.85225830078125,182.323,26.56905830078125,175.889C68.51995830078125,148.123,70.10065830078125,58.5,119.55225830078125,18.9516C129.52625830078125,11.0824,141.09825830078125,5.48954,153.46025830078125,2.56487C156.88525830078126,1.6967,160.69725830078124,0.626984,163.40925830078126,0.037867C119.85125830078125,-0.91094,77.80045830078124,16.0053,47.02535830078125,46.8571L46.96335830078125,46.8571Z" fill-rule="evenodd" fill="#1D88E1" fill-opacity="1"/></g><g style="opacity:0.47999998927116394;"><path d="M68.22555595703125,291.15412841796876C18.46401595703125,205.26712841796876,350.01085595703125,163.31612841796874,292.93485595703123,71.01092841796876C281.93685595703124,54.618328417968755,268.01585595703125,40.39212841796875,251.86685595703125,29.04412841796875C291.91185595703126,97.81572841796876,96.89535595703126,136.29412841796875,36.62675595703125,194.21412841796874C19.09939595703125,211.03512841796876,16.92978595703125,235.08012841796875,31.03223595703125,254.78412841796876C41.37615595703125,268.84512841796874,53.93805595703125,281.1291284179688,68.22555595703125,291.15412841796876Z" fill-rule="evenodd" fill="#8E03FF" fill-opacity="1"/></g><g style="opacity:0.47999998927116394;"><path d="M290.9981057128906,68.22036787109374C211.3271057128906,22.05224787109375,171.35910571289062,297.78956787109377,93.51690571289062,300.76656787109374C86.58970571289063,301.04556787109374,78.63960571289063,297.66556787109374,70.95300571289062,293.01456787109373C54.566705712890624,282.01356787109376,40.34580571289062,268.08656787109373,29.002105712890625,251.93156787109376C110.84280571289062,299.65056787109376,149.78710571289062,13.95964787109375,229.6601057128906,19.44773707109375C236.9281057128906,19.94383487109375,246.08710571289063,24.98233787109375,254.62610571289062,31.09056787109375C268.6781057128906,41.44746787109375,280.9611057128906,54.01256787109375,290.9981057128906,68.29796787109376L290.9981057128906,68.22036787109374Z" fill-rule="evenodd" fill="#1D88E1" fill-opacity="1"/></g><g style="opacity:0.47999998927116394;"><path d="M273.16079931640627,273.13990234375C241.87679931640625,304.50490234375,198.96389931640624,321.44290234375,154.69989931640626,319.89690234375C141.13984131640626,319.44790234375,137.74594931640624,303.27790234375,144.17728931640625,293.54190234375C171.94829931640623,251.57520234375,261.52179931640626,249.99390234375,301.05579931640625,200.52360234374999C308.92179931640624,190.54620234375,314.51279931640624,178.96900234375,317.43579931640625,166.60287234375C318.30379931640624,163.17669234375,319.3887993164062,159.36294234375,319.96179931640626,156.64990234375C320.91179931640625,200.22500234375,304.0017993164063,242.29220234375,273.16079931640627,273.07790234375L273.16079931640627,273.13990234375Z" fill-rule="evenodd" fill="#03B2DE" fill-opacity="1"/></g><g style="opacity:0.47999998927116394;"><path d="M273.0674833984375,273.23296435546877C304.4194833984375,241.93696435546875,321.3504833984375,199.00796435546874,319.8074833984375,154.72756435546876C319.35748339843747,141.14686505546874,303.1784833984375,137.76719435546875,293.4614833984375,144.20097435546876C260.7164833984375,165.88976435546874,252.6421833984375,225.26656435546874,227.0717833984375,269.07796435546874C212.4423833984375,294.20896435546877,186.9030833984375,317.4319643554687,156.7454833984375,319.95896435546877C200.2736833984375,320.94296435546875,242.3070833984375,304.05796435546876,273.0674833984375,273.23296435546877Z" fill-rule="evenodd" fill="#8E03FF" fill-opacity="1"/></g><g style="opacity:0.47999998927116394;"><path d="M46.8704,46.9502134765625C78.1571,15.5898134765625,121.068,-1.3474065234375,165.331,0.1929106765625C178.922,0.6424994765625,182.285,16.8277134765625,175.854,26.5481134765625C148.098,68.5149134765625,58.5088,70.0962134765625,18.9754,119.5663134765625C11.1092,129.5443134765625,5.51846,141.1213134765625,2.59489,153.4873134765625C1.72705,156.8513134765625,0.657741,160.6653134765625,0.0378529,163.3783134765625C-0.910598,119.8033134765625,15.9992,77.7369134765625,46.8394,46.9502134765625L46.8704,46.9502134765625Z" fill-rule="evenodd" fill="#00DEB9" fill-opacity="1"/></g><g style="opacity:0.47999998927116394;"><path d="M46.96335830078125,46.8571C15.61495830078125,78.1557,-1.31591169921875,121.083,0.22381590078125,165.363C0.67323430078125,178.959,16.85225830078125,182.323,26.56905830078125,175.889C68.51995830078125,148.123,70.10065830078125,58.5,119.55225830078125,18.9516C129.52625830078125,11.0824,141.09825830078125,5.48954,153.46025830078125,2.56487C156.88525830078126,1.6967,160.69725830078124,0.626984,163.40925830078126,0.037867C119.85125830078125,-0.91094,77.80045830078124,16.0053,47.02535830078125,46.8571L46.96335830078125,46.8571Z" fill-rule="evenodd" fill="#1D88E1" fill-opacity="1"/></g><g style="opacity:0.47999998927116394;"><path d="M68.22555595703125,291.15412841796876C18.46401595703125,205.26712841796876,350.01085595703125,163.31612841796874,292.93485595703123,71.01092841796876C281.93685595703124,54.618328417968755,268.01585595703125,40.39212841796875,251.86685595703125,29.04412841796875C291.91185595703126,97.81572841796876,96.89535595703126,136.29412841796875,36.62675595703125,194.21412841796874C19.09939595703125,211.03512841796876,16.92978595703125,235.08012841796875,31.03223595703125,254.78412841796876C41.37615595703125,268.84512841796874,53.93805595703125,281.1291284179688,68.22555595703125,291.15412841796876Z" fill-rule="evenodd" fill="#8E03FF" fill-opacity="1"/></g><g style="opacity:0.47999998927116394;"><path d="M290.9981057128906,68.22036787109374C211.3271057128906,22.05224787109375,171.35910571289062,297.78956787109377,93.51690571289062,300.76656787109374C86.58970571289063,301.04556787109374,78.63960571289063,297.66556787109374,70.95300571289062,293.01456787109373C54.566705712890624,282.01356787109376,40.34580571289062,268.08656787109373,29.002105712890625,251.93156787109376C110.84280571289062,299.65056787109376,149.78710571289062,13.95964787109375,229.6601057128906,19.44773707109375C236.9281057128906,19.94383487109375,246.08710571289063,24.98233787109375,254.62610571289062,31.09056787109375C268.6781057128906,41.44746787109375,280.9611057128906,54.01256787109375,290.9981057128906,68.29796787109376L290.9981057128906,68.22036787109374Z" fill-rule="evenodd" fill="#1D88E1" fill-opacity="1"/></g></g></svg>