<svg xmlns="http://www.w3.org/2000/svg" xmlns:xlink="http://www.w3.org/1999/xlink" fill="none" version="1.1" width="940" height="940" viewBox="0 0 940 940"><defs><filter id="master_svg0_48_150" filterUnits="objectBoundingBox" color-interpolation-filters="sRGB" x="-200" y="-200" width="1040" height="1040"><feFlood flood-opacity="0" result="BackgroundImageFix"/><feBlend mode="normal" in="SourceGraphic" in2="BackgroundImageFix" result="shape"/><feGaussianBlur stdDeviation="50" result="effect1_foregroundBlur"/></filter></defs><g style="mix-blend-mode:passthrough"><g style="mix-blend-mode:passthrough" filter="url(#master_svg0_48_150)"><g style="opacity:0.47999998927116394;"><path d="M696.3205986328126,696.2798657226563C633.7535986328126,759.0098657226563,547.9275986328125,792.8868657226562,459.3997986328125,789.7948657226563C432.2796836328125,788.8958657226563,425.4918986328125,756.5558657226562,438.3545786328125,737.0838657226562C493.8964986328125,653.1508657226562,673.0445986328125,649.9878657226562,752.1105986328125,551.0472657226562C767.8435986328125,531.0924657226562,779.0245986328125,507.93796572265626,784.8715986328125,483.2057657226562C786.6075986328125,476.35346572265627,788.7775986328124,468.72594572265626,789.9235986328125,463.29986572265625C791.8245986328125,550.4500657226563,758.0045986328125,634.5848657226562,696.3205986328126,696.1558657226562L696.3205986328126,696.2798657226563Z" fill-rule="evenodd" fill="#03B2DE" fill-opacity="1"/></g><g style="opacity:0.47999998927116394;"><path d="M696.1350278320313,696.4658981933594C758.8380278320312,633.8728981933593,792.7010278320313,548.0158981933594,789.6140278320313,459.4550981933594C788.7150278320312,432.2936991933594,756.3570278320312,425.53435819335937,736.9240278320312,438.4019181933594C671.4320278320313,481.77949819335936,655.2840278320313,600.5328981933594,604.1440278320313,688.1568981933594C574.8850278320313,738.4168981933594,523.8061278320313,784.8648981933593,463.49102783203125,789.9188981933594C550.5474278320312,791.8858981933594,634.6140278320313,758.1158981933594,696.1350278320313,696.4658981933594Z" fill-rule="evenodd" fill="#8E03FF" fill-opacity="1"/></g><g style="opacity:0.47999998927116394;"><path d="M243.74079999999998,243.90030112941264C306.31399999999996,181.17970112941265,392.13599999999997,147.30516112941265,480.662,150.38579512941266C507.844,151.28497112941264,514.5699999999999,183.65540112941267,501.707,203.09620112941263C446.196,287.02960112941264,267.01800000000003,290.19260112941265,187.9509,389.1336011294127C172.2183,409.08760112941263,161.0369,432.24260112941266,155.18978,456.97460112941263C153.45409,463.70260112941264,151.31548,471.3306011294126,150.0757058,476.7566011294127C148.1788,389.60660112941264,181.9985,305.47360112941266,243.6788,243.90030112941264L243.74079999999998,243.90030112941264Z" fill-rule="evenodd" fill="#00DEB9" fill-opacity="1"/></g><g style="opacity:0.47999998927116394;"><path d="M243.92672333688736,243.71429999999998C181.22982333688736,306.31100000000004,147.36817333688737,392.166,150.44763833688737,480.725C151.34647333688736,507.918,183.70462333688735,514.646,203.13812333688736,501.778C287.0395233368873,446.246,290.20152333688736,267,389.1045233368874,187.9032C409.0515233368874,172.1647,432.19752333688734,160.9791,456.92052333688736,155.12974C463.76952333688735,153.39339,471.39452333688735,151.25397,476.8185233368874,150.075734C389.70252333688734,148.17812,305.60052333688736,182.0106,244.05072333688736,243.71429999999998L243.92672333688736,243.71429999999998Z" fill-rule="evenodd" fill="#1D88E1" fill-opacity="1"/></g><g style="opacity:0.47999998927116394;"><path d="M286.4510233581543,732.309249206543C186.9280333581543,560.535249206543,850.0227233581543,476.63224920654295,735.8697233581543,292.021849206543C713.8747233581543,259.236749206543,686.0317233581543,230.78434920654297,653.7347233581543,208.08824920654297C733.8247233581543,345.631249206543,343.7907233581543,422.58924920654295,223.2534233581543,538.4282492065429C188.1988133581543,572.069249206543,183.85959335815429,620.160249206543,212.0645233581543,659.568249206543C232.7524233581543,687.691249206543,257.8761233581543,712.258249206543,286.4510233581543,732.309249206543Z" fill-rule="evenodd" fill="#8E03FF" fill-opacity="1"/></g><g style="opacity:0.47999998927116394;"><path d="M731.9952266845703,286.44079759521486C572.6532266845703,194.10446759521486,492.7192266845703,745.5800975952149,337.0342266845703,751.5330975952148C323.1792266845703,752.0910975952148,307.2793266845703,745.3320975952148,291.9060266845703,736.0300975952149C259.1333266845703,714.0260975952149,230.6917266845703,686.1730975952148,208.0042266845703,653.8640975952148C371.68522668457035,749.3010975952149,449.5742266845703,177.91929759521486,609.3192266845704,188.89543559521485C623.8562266845703,189.88762759521484,642.1732266845703,199.96459759521485,659.2512266845704,212.18109759521485C687.3562266845703,232.89499759521485,711.9222266845703,258.0251975952149,731.9952266845703,286.59579759521483L731.9952266845703,286.44079759521486Z" fill-rule="evenodd" fill="#1D88E1" fill-opacity="1"/></g><g style="opacity:0.47999998927116394;"><path d="M696.3205986328126,696.2798657226563C633.7535986328126,759.0098657226563,547.9275986328125,792.8868657226562,459.3997986328125,789.7948657226563C432.2796836328125,788.8958657226563,425.4918986328125,756.5558657226562,438.3545786328125,737.0838657226562C493.8964986328125,653.1508657226562,673.0445986328125,649.9878657226562,752.1105986328125,551.0472657226562C767.8435986328125,531.0924657226562,779.0245986328125,507.93796572265626,784.8715986328125,483.2057657226562C786.6075986328125,476.35346572265627,788.7775986328124,468.72594572265626,789.9235986328125,463.29986572265625C791.8245986328125,550.4500657226563,758.0045986328125,634.5848657226562,696.3205986328126,696.1558657226562L696.3205986328126,696.2798657226563Z" fill-rule="evenodd" fill="#03B2DE" fill-opacity="1"/></g><g style="opacity:0.47999998927116394;"><path d="M696.1350278320313,696.4658981933594C758.8380278320312,633.8728981933593,792.7010278320313,548.0158981933594,789.6140278320313,459.4550981933594C788.7150278320312,432.2936991933594,756.3570278320312,425.53435819335937,736.9240278320312,438.4019181933594C671.4320278320313,481.77949819335936,655.2840278320313,600.5328981933594,604.1440278320313,688.1568981933594C574.8850278320313,738.4168981933594,523.8061278320313,784.8648981933593,463.49102783203125,789.9188981933594C550.5474278320312,791.8858981933594,634.6140278320313,758.1158981933594,696.1350278320313,696.4658981933594Z" fill-rule="evenodd" fill="#8E03FF" fill-opacity="1"/></g><g style="opacity:0.47999998927116394;"><path d="M243.74079999999998,243.90030112941264C306.31399999999996,181.17970112941265,392.13599999999997,147.30516112941265,480.662,150.38579512941266C507.844,151.28497112941264,514.5699999999999,183.65540112941267,501.707,203.09620112941263C446.196,287.02960112941264,267.01800000000003,290.19260112941265,187.9509,389.1336011294127C172.2183,409.08760112941263,161.0369,432.24260112941266,155.18978,456.97460112941263C153.45409,463.70260112941264,151.31548,471.3306011294126,150.0757058,476.7566011294127C148.1788,389.60660112941264,181.9985,305.47360112941266,243.6788,243.90030112941264L243.74079999999998,243.90030112941264Z" fill-rule="evenodd" fill="#00DEB9" fill-opacity="1"/></g><g style="opacity:0.47999998927116394;"><path d="M243.92672333688736,243.71429999999998C181.22982333688736,306.31100000000004,147.36817333688737,392.166,150.44763833688737,480.725C151.34647333688736,507.918,183.70462333688735,514.646,203.13812333688736,501.778C287.0395233368873,446.246,290.20152333688736,267,389.1045233368874,187.9032C409.0515233368874,172.1647,432.19752333688734,160.9791,456.92052333688736,155.12974C463.76952333688735,153.39339,471.39452333688735,151.25397,476.8185233368874,150.075734C389.70252333688734,148.17812,305.60052333688736,182.0106,244.05072333688736,243.71429999999998L243.92672333688736,243.71429999999998Z" fill-rule="evenodd" fill="#1D88E1" fill-opacity="1"/></g><g style="opacity:0.47999998927116394;"><path d="M286.4510233581543,732.309249206543C186.9280333581543,560.535249206543,850.0227233581543,476.63224920654295,735.8697233581543,292.021849206543C713.8747233581543,259.236749206543,686.0317233581543,230.78434920654297,653.7347233581543,208.08824920654297C733.8247233581543,345.631249206543,343.7907233581543,422.58924920654295,223.2534233581543,538.4282492065429C188.1988133581543,572.069249206543,183.85959335815429,620.160249206543,212.0645233581543,659.568249206543C232.7524233581543,687.691249206543,257.8761233581543,712.258249206543,286.4510233581543,732.309249206543Z" fill-rule="evenodd" fill="#8E03FF" fill-opacity="1"/></g><g style="opacity:0.47999998927116394;"><path d="M731.9952266845703,286.44079759521486C572.6532266845703,194.10446759521486,492.7192266845703,745.5800975952149,337.0342266845703,751.5330975952148C323.1792266845703,752.0910975952148,307.2793266845703,745.3320975952148,291.9060266845703,736.0300975952149C259.1333266845703,714.0260975952149,230.6917266845703,686.1730975952148,208.0042266845703,653.8640975952148C371.68522668457035,749.3010975952149,449.5742266845703,177.91929759521486,609.3192266845704,188.89543559521485C623.8562266845703,189.88762759521484,642.1732266845703,199.96459759521485,659.2512266845704,212.18109759521485C687.3562266845703,232.89499759521485,711.9222266845703,258.0251975952149,731.9952266845703,286.59579759521483L731.9952266845703,286.44079759521486Z" fill-rule="evenodd" fill="#1D88E1" fill-opacity="1"/></g></g><g style="opacity:0.47999998927116394;"><path d="M696.3205986328126,696.2798657226563C633.7535986328126,759.0098657226563,547.9275986328125,792.8868657226562,459.3997986328125,789.7948657226563C432.2796836328125,788.8958657226563,425.4918986328125,756.5558657226562,438.3545786328125,737.0838657226562C493.8964986328125,653.1508657226562,673.0445986328125,649.9878657226562,752.1105986328125,551.0472657226562C767.8435986328125,531.0924657226562,779.0245986328125,507.93796572265626,784.8715986328125,483.2057657226562C786.6075986328125,476.35346572265627,788.7775986328124,468.72594572265626,789.9235986328125,463.29986572265625C791.8245986328125,550.4500657226563,758.0045986328125,634.5848657226562,696.3205986328126,696.1558657226562L696.3205986328126,696.2798657226563Z" fill-rule="evenodd" fill="#03B2DE" fill-opacity="1"/></g><g style="opacity:0.47999998927116394;"><path d="M696.1350278320313,696.4658981933594C758.8380278320312,633.8728981933593,792.7010278320313,548.0158981933594,789.6140278320313,459.4550981933594C788.7150278320312,432.2936991933594,756.3570278320312,425.53435819335937,736.9240278320312,438.4019181933594C671.4320278320313,481.77949819335936,655.2840278320313,600.5328981933594,604.1440278320313,688.1568981933594C574.8850278320313,738.4168981933594,523.8061278320313,784.8648981933593,463.49102783203125,789.9188981933594C550.5474278320312,791.8858981933594,634.6140278320313,758.1158981933594,696.1350278320313,696.4658981933594Z" fill-rule="evenodd" fill="#8E03FF" fill-opacity="1"/></g><g style="opacity:0.47999998927116394;"><path d="M243.74079999999998,243.90030112941264C306.31399999999996,181.17970112941265,392.13599999999997,147.30516112941265,480.662,150.38579512941266C507.844,151.28497112941264,514.5699999999999,183.65540112941267,501.707,203.09620112941263C446.196,287.02960112941264,267.01800000000003,290.19260112941265,187.9509,389.1336011294127C172.2183,409.08760112941263,161.0369,432.24260112941266,155.18978,456.97460112941263C153.45409,463.70260112941264,151.31548,471.3306011294126,150.0757058,476.7566011294127C148.1788,389.60660112941264,181.9985,305.47360112941266,243.6788,243.90030112941264L243.74079999999998,243.90030112941264Z" fill-rule="evenodd" fill="#00DEB9" fill-opacity="1"/></g><g style="opacity:0.47999998927116394;"><path d="M243.92672333688736,243.71429999999998C181.22982333688736,306.31100000000004,147.36817333688737,392.166,150.44763833688737,480.725C151.34647333688736,507.918,183.70462333688735,514.646,203.13812333688736,501.778C287.0395233368873,446.246,290.20152333688736,267,389.1045233368874,187.9032C409.0515233368874,172.1647,432.19752333688734,160.9791,456.92052333688736,155.12974C463.76952333688735,153.39339,471.39452333688735,151.25397,476.8185233368874,150.075734C389.70252333688734,148.17812,305.60052333688736,182.0106,244.05072333688736,243.71429999999998L243.92672333688736,243.71429999999998Z" fill-rule="evenodd" fill="#1D88E1" fill-opacity="1"/></g><g style="opacity:0.47999998927116394;"><path d="M286.4510233581543,732.309249206543C186.9280333581543,560.535249206543,850.0227233581543,476.63224920654295,735.8697233581543,292.021849206543C713.8747233581543,259.236749206543,686.0317233581543,230.78434920654297,653.7347233581543,208.08824920654297C733.8247233581543,345.631249206543,343.7907233581543,422.58924920654295,223.2534233581543,538.4282492065429C188.1988133581543,572.069249206543,183.85959335815429,620.160249206543,212.0645233581543,659.568249206543C232.7524233581543,687.691249206543,257.8761233581543,712.258249206543,286.4510233581543,732.309249206543Z" fill-rule="evenodd" fill="#8E03FF" fill-opacity="1"/></g><g style="opacity:0.47999998927116394;"><path d="M731.9952266845703,286.44079759521486C572.6532266845703,194.10446759521486,492.7192266845703,745.5800975952149,337.0342266845703,751.5330975952148C323.1792266845703,752.0910975952148,307.2793266845703,745.3320975952148,291.9060266845703,736.0300975952149C259.1333266845703,714.0260975952149,230.6917266845703,686.1730975952148,208.0042266845703,653.8640975952148C371.68522668457035,749.3010975952149,449.5742266845703,177.91929759521486,609.3192266845704,188.89543559521485C623.8562266845703,189.88762759521484,642.1732266845703,199.96459759521485,659.2512266845704,212.18109759521485C687.3562266845703,232.89499759521485,711.9222266845703,258.0251975952149,731.9952266845703,286.59579759521483L731.9952266845703,286.44079759521486Z" fill-rule="evenodd" fill="#1D88E1" fill-opacity="1"/></g><g style="opacity:0.47999998927116394;"><path d="M696.3205986328126,696.2798657226563C633.7535986328126,759.0098657226563,547.9275986328125,792.8868657226562,459.3997986328125,789.7948657226563C432.2796836328125,788.8958657226563,425.4918986328125,756.5558657226562,438.3545786328125,737.0838657226562C493.8964986328125,653.1508657226562,673.0445986328125,649.9878657226562,752.1105986328125,551.0472657226562C767.8435986328125,531.0924657226562,779.0245986328125,507.93796572265626,784.8715986328125,483.2057657226562C786.6075986328125,476.35346572265627,788.7775986328124,468.72594572265626,789.9235986328125,463.29986572265625C791.8245986328125,550.4500657226563,758.0045986328125,634.5848657226562,696.3205986328126,696.1558657226562L696.3205986328126,696.2798657226563Z" fill-rule="evenodd" fill="#03B2DE" fill-opacity="1"/></g><g style="opacity:0.47999998927116394;"><path d="M696.1350278320313,696.4658981933594C758.8380278320312,633.8728981933593,792.7010278320313,548.0158981933594,789.6140278320313,459.4550981933594C788.7150278320312,432.2936991933594,756.3570278320312,425.53435819335937,736.9240278320312,438.4019181933594C671.4320278320313,481.77949819335936,655.2840278320313,600.5328981933594,604.1440278320313,688.1568981933594C574.8850278320313,738.4168981933594,523.8061278320313,784.8648981933593,463.49102783203125,789.9188981933594C550.5474278320312,791.8858981933594,634.6140278320313,758.1158981933594,696.1350278320313,696.4658981933594Z" fill-rule="evenodd" fill="#8E03FF" fill-opacity="1"/></g><g style="opacity:0.47999998927116394;"><path d="M243.74079999999998,243.90030112941264C306.31399999999996,181.17970112941265,392.13599999999997,147.30516112941265,480.662,150.38579512941266C507.844,151.28497112941264,514.5699999999999,183.65540112941267,501.707,203.09620112941263C446.196,287.02960112941264,267.01800000000003,290.19260112941265,187.9509,389.1336011294127C172.2183,409.08760112941263,161.0369,432.24260112941266,155.18978,456.97460112941263C153.45409,463.70260112941264,151.31548,471.3306011294126,150.0757058,476.7566011294127C148.1788,389.60660112941264,181.9985,305.47360112941266,243.6788,243.90030112941264L243.74079999999998,243.90030112941264Z" fill-rule="evenodd" fill="#00DEB9" fill-opacity="1"/></g><g style="opacity:0.47999998927116394;"><path d="M243.92672333688736,243.71429999999998C181.22982333688736,306.31100000000004,147.36817333688737,392.166,150.44763833688737,480.725C151.34647333688736,507.918,183.70462333688735,514.646,203.13812333688736,501.778C287.0395233368873,446.246,290.20152333688736,267,389.1045233368874,187.9032C409.0515233368874,172.1647,432.19752333688734,160.9791,456.92052333688736,155.12974C463.76952333688735,153.39339,471.39452333688735,151.25397,476.8185233368874,150.075734C389.70252333688734,148.17812,305.60052333688736,182.0106,244.05072333688736,243.71429999999998L243.92672333688736,243.71429999999998Z" fill-rule="evenodd" fill="#1D88E1" fill-opacity="1"/></g><g style="opacity:0.47999998927116394;"><path d="M286.4510233581543,732.309249206543C186.9280333581543,560.535249206543,850.0227233581543,476.63224920654295,735.8697233581543,292.021849206543C713.8747233581543,259.236749206543,686.0317233581543,230.78434920654297,653.7347233581543,208.08824920654297C733.8247233581543,345.631249206543,343.7907233581543,422.58924920654295,223.2534233581543,538.4282492065429C188.1988133581543,572.069249206543,183.85959335815429,620.160249206543,212.0645233581543,659.568249206543C232.7524233581543,687.691249206543,257.8761233581543,712.258249206543,286.4510233581543,732.309249206543Z" fill-rule="evenodd" fill="#8E03FF" fill-opacity="1"/></g><g style="opacity:0.47999998927116394;"><path d="M731.9952266845703,286.44079759521486C572.6532266845703,194.10446759521486,492.7192266845703,745.5800975952149,337.0342266845703,751.5330975952148C323.1792266845703,752.0910975952148,307.2793266845703,745.3320975952148,291.9060266845703,736.0300975952149C259.1333266845703,714.0260975952149,230.6917266845703,686.1730975952148,208.0042266845703,653.8640975952148C371.68522668457035,749.3010975952149,449.5742266845703,177.91929759521486,609.3192266845704,188.89543559521485C623.8562266845703,189.88762759521484,642.1732266845703,199.96459759521485,659.2512266845704,212.18109759521485C687.3562266845703,232.89499759521485,711.9222266845703,258.0251975952149,731.9952266845703,286.59579759521483L731.9952266845703,286.44079759521486Z" fill-rule="evenodd" fill="#1D88E1" fill-opacity="1"/></g></g></svg>